<svg xmlns="http://www.w3.org/2000/svg" xmlns:xlink="http://www.w3.org/1999/xlink" id="Layer_1" x="0px" y="0px" viewBox="0 0 680.5 426.4" style="enable-background:new 0 0 680.5 426.4;" xml:space="preserve"><style type="text/css">	.st0{fill:#0083C2;}	.st1{fill:#91A4B6;}	.st2{fill:#002F49;}</style><path class="st0" d="M205.2,162.4v84.4c0,5.3-4.3,9.7-9.7,9.7s-9.7-4.3-9.7-9.7v-31.1c0-32.4-26.3-58.7-58.7-58.7 s-58.7,26.3-58.7,58.7v31.1c0,5.3-4.3,9.7-9.7,9.7s-9.7-4.3-9.7-9.7v-84.4H0v84.4c0,32.4,26.3,58.7,58.7,58.7s58.7-26.3,58.7-58.7 v-31.1c0-5.3,4.3-9.7,9.7-9.7c5.3,0,9.7,4.3,9.7,9.7v31.1c0,32.4,26.3,58.7,58.7,58.7s58.7-26.3,58.7-58.7v-84.4H205.2L205.2,162.4z "></path><path class="st1" d="M195.5,0c-32.4,0-58.7,26.3-58.7,58.7v31.1c0,5.3-4.3,9.7-9.7,9.7c-5.3,0-9.7-4.3-9.7-9.7V58.7 C117.4,26.3,91.1,0,58.7,0S0,26.3,0,58.7v84.4h49.1V58.7c0-5.3,4.3-9.7,9.7-9.7s9.7,4.3,9.7,9.7v31.1c0,32.4,26.4,58.7,58.7,58.7 s58.7-26.3,58.7-58.7V58.7c0-5.3,4.3-9.7,9.7-9.7s9.7,4.3,9.7,9.7v84.4h49V58.7C254.2,26.3,227.9,0,195.5,0"></path><path class="st2" d="M647.1,170.4v0.3c0,1.2,0,4.6-10.3,4.6h-37.4v-9.4H636C643.4,165.9,647.1,167.4,647.1,170.4 M599.4,138.6V130 h32.8c4.2,0,9.2,0.7,9.2,4.3c0,1.1,0,4.3-10.6,4.3H599.4z M666.9,149.6c5.3-4.9,8-11.2,8-18.9s-2.9-14.1-8.8-19.4 c-7-6.2-17.5-9.5-30.5-9.5l-69.2,0.2v101.4h70.4c39.5,0,43.8-21.2,43.8-30.5C680.5,162.4,676.2,154.9,666.9,149.6"></path><path class="st2" d="M383.7,101.8h-2.5c-6.3,0-11.3,2.5-14.7,7.4L344,141.5l-22.5-32.2c-3.4-4.8-8.6-7.5-14.8-7.5h-2.5 c-9.4,0-16.8,6.6-16.8,15.1v86.7h33.1v-43l9.3,12.6c3.6,4.8,8.3,7.2,13.8,7.2s10.2-2.4,13.9-7.2l9.6-13v43.2h33.4V117 C400.5,108.5,393.1,101.8,383.7,101.8"></path><polygon class="st2" points="506.9,101.8 506.9,137.9 460,137.9 460,101.8 426.4,101.8 426.4,203.7 460,203.7 460,166.6  506.9,166.6 506.9,203.7 540.5,203.7 540.5,101.8 "></polygon><path class="st2" d="M650.9,410.7c2.7,1.8,6.5,2.7,11.4,2.7s8.8-1.2,11.5-3.6c2.7-2.4,4.1-5.2,4.1-8.4c0-2.5-1.1-4.6-3.2-6.4 c-1.5-1.3-4.5-2.5-9-3.9c-2.9-0.9-4.6-1.5-5.2-1.8c-0.9-0.6-1.3-1.3-1.3-2.1c0-0.8,0.4-1.6,1.3-2.2c0.8-0.6,2.2-1,4.2-1 s3.6,0.4,5,1.2c1,0.6,1.7,1.6,2.2,2.8l8.5-1.5c-0.6-2.7-2-4.9-4.3-6.5s-5.6-2.4-10-2.4c-5.5,0-9.7,1.4-12.5,4.1c-2,2-3,4.3-3,7 s1,4.9,3.1,6.6c1.3,1.1,4.8,2.5,10.4,4.4c2.1,0.7,3.4,1.3,3.8,1.7c0.5,0.5,0.7,1,0.7,1.7c0,0.9-0.4,1.7-1.3,2.4 c-1.3,0.9-3,1.4-5,1.4s-3.7-0.4-4.8-1.2c-1.2-0.8-2.2-2.1-3-4l-8.9,1.4C646.4,406.3,648.2,408.9,650.9,410.7 M606.5,412.6h9.2 l2.9-14c0.9-4.1,1.6-6.8,2.3-8.1c0.9-1.9,2.2-3.4,3.9-4.5c1.7-1.1,3.2-1.7,4.5-1.7c1.2,0,2.2,0.3,2.9,1c0.7,0.7,1,1.6,1,2.8 c0,0.6-0.3,2.3-0.9,5.2l-4,19.4h9.2l4-19.3c0.7-3.3,1.1-5.6,1.1-6.8c0-2.7-0.8-4.8-2.4-6.4s-3.8-2.4-6.6-2.4c-2.1,0-4.1,0.4-6,1.2 c-1.9,0.8-3.9,2.1-6.1,4l0.9-4.4h-8.8L606.5,412.6L606.5,412.6z M590.1,403c-1.7,2.2-3.8,3.2-6.4,3.2c-2,0-3.7-0.7-5-2.1 c-1.3-1.4-2-3.4-2-5.8c0-2,0.4-4.1,1.3-6.5c0.9-2.3,2.1-4.1,3.6-5.4s3.3-1.8,5.3-1.8s3.7,0.7,4.9,2s1.9,3.1,1.9,5.3 C593.8,396.2,592.6,399.9,590.1,403 M569.3,406c1.2,2.4,3.1,4.2,5.6,5.5c2.5,1.3,5.3,1.9,8.6,1.9c5.9,0,10.7-2,14.2-6 c3.5-4,5.3-8.8,5.3-14.4c0-4.7-1.4-8.4-4.2-11.2c-2.8-2.8-6.8-4.2-11.8-4.2c-5.8,0-10.5,1.9-14.1,5.7c-3.6,3.8-5.4,8.8-5.4,15.1 C567.5,401.1,568.1,403.6,569.3,406 M547.8,412.6h9.2l7.1-34.2H555L547.8,412.6z M555.9,373.8h9.2l1.7-8.4h-9.2L555.9,373.8z  M532.7,385.2l-2.9,13.7c-0.8,3.8-1.2,6.2-1.2,7.3c0,2.2,0.7,4,2.2,5.2s3.8,1.9,7.1,1.9c1.7,0,3.3-0.2,4.9-0.5l1.5-6.8 c-1.6,0.1-2.7,0.2-3.1,0.2c-1.2,0-2-0.2-2.5-0.6c-0.5-0.4-0.7-1-0.7-1.7c0-0.4,0.3-1.8,0.8-4.4l3-14.3h5.7l1.4-6.8h-5.6l2.5-11.8 l-10.6,6.4l-1.1,5.5h-4.5l-1.4,6.8L532.7,385.2L532.7,385.2z M488.7,397.5c-0.7,3.5-1.1,5.9-1.1,7c0,2.7,0.8,4.9,2.4,6.5 c1.6,1.6,3.8,2.4,6.6,2.4c4.4,0,8.5-1.8,12.3-5.4l-1,4.6h8.6l7.1-34.2h-9.2l-3.4,16.3c-0.5,2.2-0.9,3.8-1.3,4.8 c-0.6,1.3-1.2,2.4-1.9,3.2c-0.7,0.8-1.4,1.5-2.2,2.2c-0.8,0.6-1.7,1.1-2.5,1.4c-0.8,0.3-1.6,0.5-2.4,0.5c-1.1,0-2.1-0.4-2.8-1.1 c-0.7-0.7-1.1-1.5-1.1-2.5c0-0.6,0.3-2.1,0.8-4.5l4.2-20.2h-9.2L488.7,397.5L488.7,397.5z M476.5,412.6l9.8-47.2h-9.2l-9.9,47.2 H476.5L476.5,412.6z M451.1,403c-1.7,2.2-3.8,3.2-6.4,3.2c-2,0-3.7-0.7-5-2.1c-1.3-1.4-2-3.4-2-5.8c0-2,0.4-4.1,1.3-6.5 c0.9-2.3,2.1-4.1,3.6-5.4s3.3-1.8,5.3-1.8s3.7,0.7,4.9,2s1.9,3.1,1.9,5.3C454.8,396.2,453.5,399.9,451.1,403 M430.3,406 c1.2,2.4,3.1,4.2,5.6,5.5c2.5,1.3,5.3,1.9,8.6,1.9c5.9,0,10.7-2,14.2-6c3.5-4,5.3-8.8,5.3-14.4c0-4.7-1.4-8.4-4.2-11.2 c-2.8-2.8-6.8-4.2-11.8-4.2c-5.8,0-10.5,1.9-14.1,5.7c-3.6,3.8-5.4,8.8-5.4,15.1C428.5,401.1,429.1,403.6,430.3,406 M394.8,410.7 c2.7,1.8,6.5,2.7,11.4,2.7s8.8-1.2,11.5-3.6c2.7-2.4,4.1-5.2,4.1-8.4c0-2.5-1.1-4.6-3.2-6.4c-1.5-1.3-4.5-2.5-9-3.9 c-2.9-0.9-4.6-1.5-5.2-1.8c-0.9-0.6-1.3-1.3-1.3-2.1c0-0.8,0.4-1.6,1.3-2.2c0.9-0.6,2.2-1,4.2-1s3.6,0.4,5,1.2 c1,0.6,1.7,1.6,2.2,2.8l8.5-1.5c-0.6-2.7-2-4.9-4.3-6.5s-5.6-2.4-10-2.4c-5.5,0-9.7,1.4-12.5,4.1c-2,2-3,4.3-3,7s1,4.9,3.1,6.6 c1.3,1.1,4.8,2.5,10.4,4.4c2.1,0.7,3.4,1.3,3.8,1.7c0.5,0.5,0.7,1,0.7,1.7c0,0.9-0.4,1.7-1.3,2.4c-1.3,0.9-3,1.4-5,1.4 s-3.6-0.4-4.8-1.2c-1.2-0.8-2.2-2.1-3-4l-8.9,1.4C390.3,406.3,392.1,408.9,394.8,410.7 M343.4,392.2c0.9-2.7,2-4.7,3.4-6 c1.4-1.3,2.9-2,4.5-2s3.2,0.7,4.5,2.2c1.3,1.5,2,3.4,2,5.8c0,2.1-0.4,4.3-1.2,6.5c-0.8,2.2-2,4-3.5,5.2c-1.5,1.2-3.1,1.8-4.7,1.8 c-1.8,0-3.2-0.7-4.4-2c-1.2-1.4-1.8-3.3-1.8-5.9C342.3,396.2,342.7,394.3,343.4,392.2 M331.4,415.7c0,3.8,1.2,6.6,3.7,8.2 c2.5,1.6,6.1,2.5,10.9,2.5c2.1,0,4-0.2,5.8-0.5c1.8-0.4,3.3-0.9,4.6-1.7c1.3-0.8,2.4-1.8,3.2-2.9c0.9-1.2,1.6-2.7,2.3-4.7 s1.5-5.2,2.5-9.8l5.9-28.5h-8.6l-1.3,6c-1-2.2-2.5-3.9-4.4-5c-1.9-1.2-4-1.8-6.2-1.8c-2.8,0-5.4,0.9-8.1,2.6 c-2.6,1.7-4.7,4.2-6.1,7.6c-1.5,3.4-2.2,7-2.2,11c0,4.5,1.1,8,3.2,10.4c2.1,2.4,4.9,3.5,8.2,3.5s6.7-1.3,9.9-4l-0.3,1.6 c-0.5,2.8-1,4.6-1.3,5.5c-0.6,1.3-1.3,2.3-2.2,2.9c-1.2,0.8-2.8,1.2-4.7,1.2c-1.2,0-2.2-0.2-2.9-0.5c-0.7-0.3-1.2-0.8-1.6-1.3 c-0.3-0.5-0.5-1.2-0.5-2.2l-9.8-1.4C331.4,414.9,331.4,415.3,331.4,415.7 M291.8,412.6h9.2l2.9-14c0.9-4.1,1.6-6.8,2.3-8.1 c0.9-1.9,2.2-3.4,3.9-4.5c1.6-1.1,3.1-1.7,4.5-1.7c1.2,0,2.2,0.3,2.9,1c0.7,0.7,1,1.6,1,2.8c0,0.6-0.3,2.3-0.9,5.2l-4,19.4h9.2 l4-19.3c0.7-3.3,1.1-5.6,1.1-6.8c0-2.7-0.8-4.8-2.4-6.4s-3.8-2.4-6.6-2.4c-2.1,0-4.1,0.4-6,1.2c-1.9,0.8-3.9,2.1-6.1,4l0.9-4.4H299 L291.8,412.6L291.8,412.6z M273.4,412.6h9.2l7.1-34.2h-9.2L273.4,412.6z M281.5,373.8h9.2l1.7-8.4h-9.2L281.5,373.8z M247.2,412.6 h9.2l2.2-10.7c0.9-4.4,1.8-7.5,2.7-9.5c0.9-2,2.2-3.6,3.8-4.8c1.6-1.2,3.2-1.8,4.8-1.8c0.9,0,1.8,0.2,2.7,0.5l3.5-7.6 c-1.5-0.7-3-1-4.3-1c-3.8,0-7.2,2.5-10.5,7.4l1.4-6.6h-8.6L247.2,412.6L247.2,412.6z M222.2,392.7c0.5-2.8,1.6-4.9,3.1-6.4 s3.2-2.1,5.1-2.1s3.4,0.6,4.6,1.9c1.1,1.3,1.7,3.2,1.7,5.7c0,0.2,0,0.5,0,0.9H222.2L222.2,392.7z M245,392.3c0-4.7-1.2-8.3-3.7-10.9 c-2.5-2.6-5.8-3.9-10-3.9c-6.6,0-11.6,2.5-15.1,7.4c-2.6,3.7-3.9,7.8-3.9,12.5c0,4.7,1.4,8.6,4.3,11.5c2.9,2.9,6.6,4.4,11.2,4.4 c3.4,0,6.4-0.8,9.1-2.5c2.7-1.7,4.8-4.1,6.5-7.5l-8.3-1.4c-1.7,3.2-4.1,4.8-7.2,4.8c-1.9,0-3.5-0.7-4.8-2.1s-2-3.2-2-5.5 c0-0.2,0-0.5,0-0.8h23.2C244.8,396.6,245,394.6,245,392.3 M185.5,392.7c0.5-2.8,1.6-4.9,3.1-6.4s3.2-2.1,5.1-2.1s3.4,0.6,4.6,1.9 c1.1,1.3,1.7,3.2,1.7,5.7c0,0.2,0,0.5,0,0.9H185.5L185.5,392.7z M208.4,392.3c0-4.7-1.2-8.3-3.7-10.9c-2.5-2.6-5.8-3.9-10-3.9 c-6.6,0-11.6,2.5-15.1,7.4c-2.6,3.7-3.9,7.8-3.9,12.5c0,4.7,1.4,8.6,4.3,11.5c2.9,2.9,6.6,4.4,11.2,4.4c3.4,0,6.4-0.8,9-2.5 c2.7-1.7,4.8-4.1,6.5-7.5l-8.3-1.4c-1.7,3.2-4.1,4.8-7.2,4.8c-1.9,0-3.5-0.7-4.7-2.1c-1.3-1.4-2-3.2-2-5.5c0-0.2,0-0.5,0-0.8h23.2 C208.2,396.6,208.4,394.6,208.4,392.3 M134.4,412.6h9.2l2.9-14c0.9-4.1,1.6-6.8,2.3-8.1c0.9-1.9,2.2-3.4,3.9-4.5 c1.6-1.1,3.1-1.7,4.5-1.7c1.2,0,2.2,0.3,2.9,1c0.7,0.7,1,1.6,1,2.8c0,0.6-0.3,2.3-0.9,5.2l-4,19.4h9.2l4-19.3 c0.7-3.3,1.1-5.6,1.1-6.8c0-2.7-0.8-4.8-2.4-6.4s-3.8-2.4-6.6-2.4c-2.1,0-4.1,0.4-6,1.2c-1.9,0.8-3.9,2.1-6.1,4l0.9-4.4h-8.8 L134.4,412.6L134.4,412.6z M115.9,412.6h9.2l7.1-34.2h-9.2L115.9,412.6z M124,373.8h9.2l1.7-8.4h-9.2L124,373.8z M87.1,392.2 c0.9-2.7,2-4.7,3.4-6c1.4-1.3,2.9-2,4.6-2s3.2,0.7,4.5,2.2c1.3,1.5,2,3.4,2,5.8c0,2.1-0.4,4.3-1.2,6.5c-0.8,2.2-2,4-3.5,5.2 c-1.5,1.2-3.1,1.8-4.7,1.8c-1.8,0-3.2-0.7-4.4-2c-1.2-1.4-1.8-3.3-1.8-5.9C86.1,396.2,86.4,394.3,87.1,392.2 M75.1,415.7 c0,3.8,1.2,6.6,3.7,8.2c2.5,1.6,6.1,2.5,10.9,2.5c2.1,0,4-0.2,5.8-0.5c1.8-0.3,3.3-0.9,4.6-1.7c1.3-0.8,2.4-1.8,3.2-2.9 c0.9-1.2,1.6-2.7,2.3-4.7s1.5-5.2,2.4-9.8l5.9-28.5h-8.6l-1.3,6c-1.1-2.2-2.5-3.9-4.4-5c-1.9-1.2-4-1.8-6.2-1.8 c-2.8,0-5.4,0.9-8.1,2.6c-2.6,1.7-4.7,4.2-6.1,7.6c-1.5,3.4-2.2,7-2.2,11c0,4.5,1.1,8,3.2,10.4c2.1,2.4,4.9,3.5,8.2,3.5 s6.7-1.3,9.9-4l-0.3,1.6c-0.5,2.8-1,4.6-1.3,5.5c-0.6,1.3-1.3,2.3-2.2,2.9c-1.2,0.8-2.8,1.2-4.7,1.2c-1.2,0-2.2-0.2-2.9-0.5 c-0.7-0.3-1.2-0.8-1.6-1.3c-0.3-0.5-0.5-1.2-0.5-2.2l-9.8-1.4C75.2,414.9,75.1,415.3,75.1,415.7 M35.6,412.6h9.2l2.9-14 c0.9-4.1,1.6-6.8,2.3-8.1c0.9-1.9,2.2-3.4,3.9-4.5c1.6-1.1,3.1-1.7,4.5-1.7c1.2,0,2.2,0.3,2.9,1c0.7,0.7,1.1,1.6,1.1,2.8 c0,0.6-0.3,2.3-0.9,5.2l-4.1,19.4h9.2l4-19.3c0.7-3.3,1.1-5.6,1.1-6.8c0-2.7-0.8-4.8-2.4-6.4s-3.8-2.4-6.6-2.4c-2.1,0-4.1,0.4-6,1.2 c-1.9,0.8-3.9,2.1-6.1,4l0.9-4.4h-8.8L35.6,412.6L35.6,412.6z M9.9,392.7c0.5-2.8,1.6-4.9,3.1-6.4s3.2-2.1,5.1-2.1s3.4,0.6,4.6,1.9 c1.1,1.3,1.7,3.2,1.7,5.7c0,0.2,0,0.5,0,0.9C24.3,392.7,9.9,392.7,9.9,392.7z M32.7,392.3c0-4.7-1.2-8.3-3.7-10.9 c-2.5-2.6-5.8-3.9-10-3.9c-6.6,0-11.6,2.5-15.2,7.4c-2.6,3.7-3.9,7.8-3.9,12.5c0,4.7,1.4,8.6,4.3,11.5c2.9,2.9,6.6,4.4,11.2,4.4 c3.3,0,6.4-0.8,9.1-2.5c2.7-1.7,4.8-4.1,6.4-7.5l-8.3-1.4c-1.7,3.2-4.1,4.8-7.2,4.8c-1.9,0-3.4-0.7-4.7-2.1 c-1.3-1.4-1.9-3.2-1.9-5.5c0-0.2,0-0.5,0-0.8h23.2C32.5,396.6,32.7,394.6,32.7,392.3"></path></svg>