<svg width="664" height="211" viewBox="0 0 664 211" fill="none" xmlns="http://www.w3.org/2000/svg">
  <path fill-rule="evenodd" clip-rule="evenodd" d="M320.049 85.3693H288.044C284.304 85.3693 283.593 85.5644 283.593 88.8817V90.1852C283.593 92.0975 284.71 92.5893 287.435 93.0966C287.435 93.0966 307.728 96.812 310.055 97.2101C322.173 99.5205 324.594 104.133 324.594 113.968V122.398C324.594 134.848 318.941 140.764 301.068 140.663C287.435 140.663 265.314 139.063 265.314 139.063L265.525 124.607H298.749C304.402 124.607 306.315 123.6 306.315 119.385V116.372C306.315 114.874 306.018 113.469 303.691 113.071C301.271 112.563 285.92 109.855 284.304 109.55C271.077 107.248 264.814 106.342 264.814 93.7991V87.3752C264.814 74.832 270.874 69.3135 288.747 69.3135C302.38 69.3135 320.253 70.9214 320.253 70.9214L320.049 85.3693Z" fill="#2B495A"/>
  <path fill-rule="evenodd" clip-rule="evenodd" d="M357.498 109.048H374.762L367.594 83.969H364.666L357.498 109.048ZM378.806 124.198H353.555L348.909 140.152H328.92C328.92 140.152 349.12 76.9363 350.533 72.7214C351.337 70.0129 351.642 69.9115 355.273 69.9115H377.089C380.727 69.9115 381.024 70.0129 381.828 72.7214C383.148 76.9363 403.34 140.152 403.34 140.152H383.444L378.806 124.198Z" fill="#2B495A"/>
  <path d="M430.084 69.9115H411.805V140.152V69.9193H430.084V69.9115Z" fill="white"/>
  <path d="M411.805 69.9232H430.084V140.164H411.805V69.9232Z" fill="#2B495A"/>
  <path d="M462.08 104.833V84.7652H479.75C485.005 84.7652 487.027 87.2707 487.027 91.79V97.8158C487.027 102.226 485.005 104.833 479.75 104.833H462.08ZM485.442 69.9193H443.809V140.152H462.08V119.687H484.7C498.333 119.687 505.306 111.858 505.306 101.422V88.0746C505.306 77.8261 498.583 70.1925 485.442 69.9193Z" fill="#2B495A"/>
  <path d="M570.115 69.9115H516.48V140.152H570.006V124.401H534.775V112.256H564.758V97.004H534.775V84.7652H570.115V69.9115Z" fill="#2B495A"/>
  <path d="M664 69.9115H663.992V140.152H645.721H664V69.9115Z" fill="white"/>
  <path d="M663.992 69.9115H640.88C639.865 69.9115 639.662 70.8169 639.662 70.8169L623.819 112.56H623.007L607.156 70.8169C607.156 70.8169 606.946 69.9115 605.946 69.9115H582.818V140.152H601.097V102.023H602.097L614.527 138.849C614.527 138.849 614.832 140.152 616.136 140.152H630.776C631.994 140.152 632.291 138.849 632.291 138.849L644.714 102.023H645.721V140.152H663.992V69.9115Z" fill="#2B495A"/>
  <path d="M46.9658 76.4703V111.259L165.814 134.113V99.3246L46.9658 76.4703Z" fill="#E98300"/>
  <path d="M35.4101 157.724H0V210.582H101.163V175.231H35.4101V157.724ZM177.074 101.462V174.997L111.626 175.231V210.582H212.789V108.37L177.074 101.462ZM101.163 -0.00012207H0V102.196L35.4101 108.995V35.054H101.163V-0.00012207ZM212.789 -0.00012207H111.626V35.054H177.074V52.5771H212.789V-0.00012207Z" fill="#2B495A"/>
</svg>
